HIERARCHY
ROOT Hips
{
  OFFSET -125.086 92.215 135.881
  CHANNELS 6 Xposition Yposition Zposition Zrotation Xrotation Yrotation
  JOINT LeftUpLeg
  {
    OFFSET 8.64259 1.95398 -2.38835
    CHANNELS 3 Zrotation Xrotation Yrotation
    JOINT LeftLeg
    {
      OFFSET 43.7702 0 0
      CHANNELS 3 Zrotation Xrotation Yrotation
      JOINT LeftFoot
      {
        OFFSET 40.6238 0 0
        CHANNELS 3 Zrotation Xrotation Yrotation
        JOINT LeftToeBase
        {
          OFFSET 12.7242 0 0
          CHANNELS 3 Zrotation Xrotation Yrotation
          End Site
          {
            OFFSET 0 0 0
          }
        }
      }
    }
  }
  JOINT RightUpLeg
  {
    OFFSET -8.2249 1.95398 -2.59336
    CHANNELS 3 Zrotation Xrotation Yrotation
    JOINT RightLeg
    {
      OFFSET 43.5653 0 0
      CHANNELS 3 Zrotation Xrotation Yrotation
      JOINT RightFoot
      {
        OFFSET 40.6238 0 0
        CHANNELS 3 Zrotation Xrotation Yrotation
        JOINT RightToeBase
        {
          OFFSET 12.7242 0 0
          CHANNELS 3 Zrotation Xrotation Yrotation
          End Site
          {
            OFFSET 0 0 0
          }
        }
      }
    }
  }
  JOINT Spine
  {
    OFFSET 0.165834 0.87714 6.61349
    CHANNELS 3 Zrotation Xrotation Yrotation
    JOINT Spine1
    {
      OFFSET 7.38963 1.71661e-005 0
      CHANNELS 3 Zrotation Xrotation Yrotation
      JOINT Spine2
      {
        OFFSET 11.9445 1.14441e-005 0
        CHANNELS 3 Zrotation Xrotation Yrotation
        JOINT Spine3
        {
          OFFSET 14.7254 4.19617e-005 0
          CHANNELS 3 Zrotation Xrotation Yrotation
          JOINT Spine4
          {
            OFFSET 10.9679 0 0
            CHANNELS 3 Zrotation Xrotation Yrotation
            JOINT RightShoulder
            {
              OFFSET 2.46616 -1.6653 3.69651
              CHANNELS 3 Zrotation Xrotation Yrotation
              JOINT RightArm
              {
                OFFSET 13.0012 0 0
                CHANNELS 3 Zrotation Xrotation Yrotation
                JOINT RightForeArm
                {
                  OFFSET 28.7848 1.52588e-005 0
                  CHANNELS 3 Zrotation Xrotation Yrotation
                  JOINT RightHand
                  {
                    OFFSET 26.5688 1.52588e-005 0
                    CHANNELS 3 Zrotation Xrotation Yrotation
                    End Site
                    {
                      OFFSET 0 0 0
                    }
                  }
                }
              }
            }
            JOINT LeftShoulder
            {
              OFFSET 2.38034 -1.29275 -3.7523
              CHANNELS 3 Zrotation Xrotation Yrotation
              JOINT LeftArm
              {
                OFFSET 16.3182 6.10352e-005 0
                CHANNELS 3 Zrotation Xrotation Yrotation
                JOINT LeftForeArm
                {
                  OFFSET 27.0901 0 0
                  CHANNELS 3 Zrotation Xrotation Yrotation
                  JOINT LeftHand
                  {
                    OFFSET 24.5451 1.52588e-005 0
                    CHANNELS 3 Zrotation Xrotation Yrotation
                    End Site
                    {
                      OFFSET 0 0 0
                    }
                  }
                }
              }
            }
            JOINT Neck
            {
              OFFSET 5.0226 -0.0266342 0
              CHANNELS 3 Zrotation Xrotation Yrotation
              JOINT Head
              {
                OFFSET 6.69363 2.86102e-005 0
                CHANNELS 3 Zrotation Xrotation Yrotation
                End Site
                {
                  OFFSET 0 0 0
                }
              }
            }
          }
        }
      }
    }
  }
}
MOTION
Frames:	12
Frame Time:	0.0416667
-315.981 77.9158 327.169 99.1101 19.0452 86.6847 -160.097 26.104 97.2473 -66.6489 26.8119 -17.6845 60.8178 3.99448 52.1191 92.3515 0.764414 13.7133 85.4704 39.1134 54.6506 -80.68 16.4848 31.04 -85.8322 53.1265 -146.176 156.36 -6.40805 14.7337 3.86772 5.63449 -90.7658 15.7257 7.25567 -2.69147 4.07157 7.1302 -3.00948 -18.6259 7.72584 -0.374141 1.38678 7.72584 -0.374145 131.366 -29.349 -25.1102 30.3086 0.183148 7.59519 -6.53188 -66.8982 -15.4501 -3.62435 -0.195325 1.29824 -47.357 -46.6606 143.544 31.2496 -65.1786 33.4283 -147.256 -50.2388 -168.987 140.203 -30.8267 -15.0119 -60.7603 -2.02615 -4.12838 10.7997 -6.10904 -13.5065 
-316.114 77.91 327.306 99.1562 19.0834 86.7189 -159.9 26.3046 97.2503 -66.8978 27.1294 -17.4841 59.5327 2.21152 52.004 94.068 0.808791 13.6529 85.791 39.0152 54.2671 -79.4244 14.629 30.8991 -89.7646 54.7613 -141.89 156.66 -6.95435 14.4138 3.86609 5.63929 -90.7751 15.7163 7.24813 -2.70791 4.06215 7.12194 -3.02556 -18.6349 7.72482 -0.39213 1.37779 7.72482 -0.392129 131.351 -29.2968 -25.0965 30.2722 0.331327 7.62388 -6.52251 -67.1414 -15.4032 -3.47457 -0.195043 1.63047 -47.3197 -46.6773 143.59 31.2768 -65.0641 33.3763 -147.332 -50.3515 -168.99 140.36 -30.876 -14.9819 -60.7098 -2.0192 -4.05624 10.7461 -6.08108 -13.6427 
-316.502 77.9035 327.704 99.2917 19.1964 86.8189 -159.373 26.8251 97.3063 -67.4884 28.0476 -16.8982 55.7176 -3.00515 51.21 98.9824 0.918923 13.4598 86.7308 38.7038 53.1451 -75.8687 9.37008 30.7257 -103.44 58.5675 -127.6 157.628 -8.68176 13.427 3.86133 5.65337 -90.8021 15.6889 7.22576 -2.75603 4.03448 7.09748 -3.07262 -18.6613 7.71817 -0.444877 1.35137 7.71816 -0.444877 131.308 -29.1461 -25.054 30.1643 0.762591 7.70731 -6.48078 -67.8357 -15.2584 -3.05111 -0.190745 2.5881 -47.2111 -46.7255 143.721 31.3515 -64.728 33.2219 -147.568 -50.6609 -169.008 140.807 -31.0316 -14.9016 -60.5614 -1.99822 -3.84619 10.5907 -5.99845 -14.0402 
-317.124 77.7946 328.361 99.5128 19.3831 86.9818 -158.678 27.5199 97.5651 -68.2553 29.5222 -15.9727 49.4535 -10.9957 48.4811 106.393 0.994663 13.0608 88.366 38.227 51.174 -70.7017 1.42877 31.1424 -130.604 60.776 -100.706 159.513 -11.8806 11.7074 3.85308 5.67628 -90.846 15.6442 7.18843 -2.83409 3.98943 7.05675 -3.14892 -18.7042 7.70606 -0.530768 1.30845 7.70607 -0.53077 131.243 -28.9073 -24.9806 29.9847 1.45677 7.84144 -6.36743 -68.912 -14.9955 -2.40933 -0.171422 4.09474 -47.0365 -46.8025 143.932 31.4639 -64.183 32.9702 -147.969 -51.1244 -169.055 141.506 -31.3012 -14.7827 -60.3211 -1.96197 -3.50888 10.3437 -5.86235 -14.6806 
-317.956 77.473 329.274 99.8169 19.6448 87.2053 -157.968 28.0278 98.1295 -68.9383 31.4459 -14.75 40.779 -20.0655 42.4044 114.947 0.806664 12.3115 90.8128 37.6213 48.1946 -64.7221 -7.73443 32.8157 -165.783 55.9874 -68.6383 162.828 -16.8388 9.36807 3.8408 5.70752 -90.9061 15.5831 7.13537 -2.94057 3.92779 6.99907 -3.2529 -18.7628 7.68749 -0.648591 1.24988 7.68748 -0.648591 131.158 -28.5904 -24.8798 29.7311 2.39394 8.02255 -6.12429 -70.2925 -14.576 -1.61841 -0.124977 6.05234 -46.8025 -46.905 144.215 31.6065 -63.4433 32.6302 -148.538 -51.7026 -169.14 142.424 -31.6898 -14.6341 -59.9954 -1.90829 -3.056 10.018 -5.67325 -15.5441 
-318.978 76.8972 330.431 100.203 19.9848 87.488 -157.271 27.9034 98.9372 -69.3482 33.6491 -13.2695 30.18 -27.6873 32.6251 123 0.11311 11.1516 94.1206 36.8437 44.1562 -58.4424 -16.2915 36.09 162.751 43.4906 -45.5542 168.449 -23.055 7.2518 3.82364 5.74675 -90.9816 15.5063 7.06538 -3.07418 3.85027 6.92328 -3.38321 -18.8362 7.66094 -0.797471 1.17644 7.66093 -0.797475 131.057 -28.2064 -24.7523 29.4001 3.55367 8.24766 -5.68265 -71.9033 -13.9452 -0.750168 -0.0428351 8.346 -46.5149 -47.0286 144.565 31.7753 -62.5251 32.2145 -149.278 -52.3565 -169.272 143.528 -32.204 -14.4631 -59.5912 -1.83495 -2.49977 9.62776 -5.43146 -16.6108 
-320.179 76.0354 331.837 100.692 20.3537 87.8502 -156.5 26.9711 99.9091 -69.6468 36.0067 -11.6109 19.4879 -32.0073 20.9179 129.36 -1.06416 9.76665 98.1814 35.7662 39.2812 -52.1076 -22.8052 40.7603 134.492 26.9445 -33.1825 177.673 -26.6497 7.96025 3.80673 5.79544 -91.0765 15.4112 6.98684 -3.24352 3.75423 6.83738 -3.54884 -18.9274 7.63698 -0.983084 1.08524 7.63698 -0.983087 130.944 -27.7664 -24.5992 28.9885 4.91302 8.51448 -4.96527 -73.6791 -13.032 0.127778 0.0771372 10.8459 -46.1772 -47.1661 144.974 31.9683 -61.4463 31.7379 -150.188 -53.0436 -169.458 144.787 -32.8567 -14.2781 -59.1157 -1.7392 -1.85262 9.18826 -5.1376 -17.8601 
-321.561 74.7718 333.522 100.925 21.6303 87.961 -156.11 25.7323 100.181 -70.4282 38.3905 -9.59924 10.9568 -33.2635 10.1087 133.749 -2.37805 8.48822 102.467 33.3619 33.7495 -44.8449 -25.8409 47.5961 106.906 11.1911 -29.1984 -171.745 -13.6748 14.549 3.69158 5.82306 -91.124 15.3505 6.73665 -3.29459 3.69212 6.58522 -3.58871 -18.9777 7.41388 -1.10822 1.03492 7.41389 -1.10822 130.824 -27.2817 -24.4213 28.4945 6.44485 8.82121 -3.88498 -75.5642 -11.7475 0.958038 0.229512 13.4133 -45.7978 -47.3139 145.436 32.1838 -60.228 31.2162 -151.267 -53.7128 -169.704 146.165 -33.6712 -14.0906 -58.5764 -1.61864 -1.12784 8.71558 -4.79295 -19.2708 
-323.155 73.1707 335.457 101.411 22.1229 88.3484 -155.264 23.9025 101.125 -71.4679 40.8284 -7.93817 5.83958 -32.7944 2.0844 136.547 -3.47715 7.53017 106.704 30.1449 29.0162 -38.0438 -26.2816 53.4468 80.0305 0.236666 -29.3325 -179.794 38.1848 32.3617 3.6666 5.87531 -91.2269 15.2478 6.63849 -3.47703 3.58835 6.47913 -3.76653 -19.0755 7.37515 -1.31232 0.937161 7.37512 -1.31231 130.7 -26.7634 -24.2201 27.9182 8.11762 9.16663 -2.33182 -77.5143 -9.97545 1.70113 0.402818 15.9197 -45.3839 -47.4666 145.94 32.4199 -58.893 30.6644 -152.514 -54.3006 -170.013 147.624 -34.6865 -13.9159 -57.9815 -1.47124 -0.338647 8.22555 -4.39981 -20.8213 
-325.001 71.2917 337.633 102.016 22.4479 88.848 -154.26 21.7632 102.263 -72.8536 43.1978 -6.31886 3.5453 -31.7286 -3.22933 138.286 -4.20129 6.94596 110.684 25.0199 24.8958 -31.1572 -24.0325 58.9454 56.8624 -5.17323 -30.2268 83.2712 57.239 126.782 3.66276 5.93871 -91.354 15.1242 6.57074 -3.71063 3.46377 6.40115 -3.9968 -19.1946 7.3807 -1.55601 0.81803 7.38072 -1.55602 130.575 -26.2213 -23.9968 27.2622 9.89675 9.54991 -0.133999 -79.4932 -7.53827 2.33665 0.583428 18.263 -44.9432 -47.6194 146.481 32.6738 -57.4641 30.0958 -153.93 -54.7292 -170.393 149.122 -35.9592 -13.7746 -57.3383 -1.29576 0.502144 7.73295 -3.96162 -22.4911 
-327.097 69.2861 340.016 102.671 22.833 89.3872 -153.221 19.3344 103.432 -74.272 45.4217 -4.66603 3.06979 -30.615 -6.49984 139.382 -4.55825 6.685 114.245 16.9854 21.3623 -22.985 -18.7959 64.6833 38.4091 -6.11827 -30.3916 56.9874 33.6131 146.49 3.65436 6.00667 -91.4905 14.9912 6.48973 -3.96029 3.32959 6.30927 -4.24254 -19.3222 7.37851 -1.81911 0.690458 7.37852 -1.81912 130.453 -25.6648 -23.7533 26.532 11.7445 9.96995 3.12175 -81.4652 -4.01936 2.85956 0.758662 20.3714 -44.4829 -47.7672 147.047 32.9411 -55.9645 29.5206 -155.518 -54.8984 -170.849 150.606 -37.5704 -13.6954 -56.6549 -1.09159 1.38217 7.25131 -3.48304 -24.26 
-329.371 67.3466 342.533 103.035 23.2473 89.7715 -152.102 16.3751 104.215 -74.9786 47.4646 -3.19553 3.44485 -29.6827 -8.5078 140.112 -4.62329 6.66722 116.644 4.78557 18.7147 -12.205 -7.4641 69.1209 21.3037 -3.94016 -31.7452 51.8568 22.6873 145.224 3.64132 6.05391 -91.5924 14.891 6.41666 -4.13774 3.22833 6.22852 -4.41651 -19.4174 7.36209 -2.01087 0.595291 7.36208 -2.01087 130.336 -25.1025 -23.4919 25.7364 13.6199 10.4249 6.45323 -83.4242 -0.416249 3.27615 0.918693 22.2042 -44.0108 -47.9054 147.633 33.2149 -54.4174 28.9465 -157.283 -54.673 -171.389 152.01 -39.6367 -13.7208 -55.9383 -0.858976 2.28926 6.79259 -2.96987 -26.1076 
